<?xml version="1.0" encoding="utf-8"?>
<svg version="1.0" width="512.000000pt" height="512.000000pt" viewBox="0 0 512.000000 512.000000" preserveAspectRatio="xMidYMid meet" xmlns="http://www.w3.org/2000/svg">
  <g transform="translate(0.000000,512.000000) scale(0.100000,-0.100000)" fill="#000000" stroke="none">
    <path d="M2493 4776 l-28 -24 0 -316 0 -316 28 -27 c38 -38 96 -38 134 0 l28&#10;27 0 316 0 316 -28 24 c-19 16 -40 24 -67 24 -27 0 -48 -8 -67 -24z" style="fill: rgb(255, 255, 255);"/>
    <path d="M1793 4372 c-12 -9 -27 -32 -34 -49 -10 -30 -5 -47 53 -190 59 -149&#10;65 -159 100 -176 67 -33 138 8 138 79 0 47 -106 304 -136 332 -31 27 -89 29&#10;-121 4z" style="fill: rgb(255, 255, 255);"/>
    <path d="M3243 4374 c-34 -17 -49 -44 -123 -225 -47 -116 -48 -142 -5 -185 28&#10;-28 88 -33 122 -9 26 18 143 292 143 335 0 44 -16 69 -55 86 -42 17 -43 17&#10;-82 -2z" style="fill: rgb(255, 255, 255);"/>
    <path d="M1002 4165 c-37 -16 -67 -73 -56 -108 10 -35 434 -455 465 -462 59&#10;-13 127 55 114 114 -8 35 -430 458 -465 465 -14 3 -40 -1 -58 -9z" style="fill: rgb(255, 255, 255);"/>
    <path d="M4050 4173 c-8 -3 -113 -102 -232 -221 -143 -143 -219 -225 -223&#10;-243 -13 -59 55 -127 114 -114 34 7 456 429 464 464 16 65 -61 136 -123 114z" style="fill: rgb(255, 255, 255);"/>
    <path d="M2335 3824 c-525 -92 -949 -518 -1039 -1043 -20 -120 -21 -322 -1&#10;-437 81 -465 411 -849 856 -998 162 -55 266 -69 454 -63 131 4 179 10 265 32&#10;500 130 867 527 956 1035 24 140 15 379 -20 516 -124 496 -528 873 -1025 958&#10;-116 20 -334 20 -446 0z m342 -185 c668 -74 1112 -733 927 -1377 -187 -650&#10;-917 -974 -1523 -675 -499 246 -731 824 -540 1347 118 324 389 575 726 671&#10;143 41 261 51 410 34z" style="fill: rgb(255, 255, 255);"/>
    <path d="M773 3365 c-12 -8 -27 -31 -33 -50 -15 -45 8 -97 53 -118 86 -41 277&#10;-117 291 -117 26 0 74 28 86 49 15 28 12 83 -5 108 -19 27 -292 143 -337 143&#10;-19 0 -43 -7 -55 -15z" style="fill: rgb(255, 255, 255);"/>
    <path d="M4125 3307 c-140 -58 -151 -65 -168 -100 -33 -66 8 -137 79 -137 47&#10;0 304 106 332 136 24 27 30 81 12 115 -12 22 -61 49 -87 48 -10 0 -85 -28&#10;-168 -62z" style="fill: rgb(255, 255, 255);"/>
    <path d="M374 2650 c-56 -23 -72 -108 -30 -157 l24 -28 316 0 316 0 27 28 c38&#10;38 38 96 0 134 l-27 28 -303 2 c-166 1 -312 -2 -323 -7z" style="fill: rgb(255, 255, 255);"/>
    <path d="M4125 2651 c-64 -27 -81 -110 -32 -158 l27 -28 316 0 316 0 24 28&#10;c33 38 33 96 0 134 l-24 28 -304 2 c-166 1 -312 -2 -323 -6z" style="fill: rgb(255, 255, 255);"/>
    <path d="M910 1994 c-151 -62 -180 -85 -180 -142 0 -48 21 -77 65 -92 32 -11&#10;46 -7 192 52 149 60 159 65 176 100 16 32 17 43 7 73 -27 81 -78 83 -260 9z" style="fill: rgb(255, 255, 255);"/>
    <path d="M3994 2030 c-50 -20 -71 -101 -39 -147 18 -26 292 -143 335 -143 45&#10;0 70 16 86 57 18 42 5 94 -29 115 -36 24 -294 128 -314 127 -10 0 -28 -4 -39&#10;-9z" style="fill: rgb(255, 255, 255);"/>
    <path d="M1395 1520 c-30 -13 -442 -432 -449 -457 -4 -12 0 -38 8 -58 17 -40&#10;67 -68 107 -58 35 8 457 430 464 464 8 36 -17 85 -55 104 -32 17 -46 18 -75 5z" style="fill: rgb(255, 255, 255);"/>
    <path d="M3648 1515 c-36 -20 -61 -69 -53 -104 7 -34 429 -456 464 -464 40&#10;-10 90 18 107 58 8 19 12 46 9 58 -4 13 -104 121 -223 240 -231 230 -249 243&#10;-304 212z" style="fill: rgb(255, 255, 255);"/>
    <path d="M1883 1165 c-27 -19 -143 -292 -143 -337 0 -69 67 -112 132 -85 38&#10;16 51 39 128 228 47 116 48 142 5 185 -28 28 -88 33 -122 9z" style="fill: rgb(255, 255, 255);"/>
    <path d="M3123 1166 c-37 -17 -53 -43 -53 -85 0 -44 107 -302 136 -328 50 -45&#10;133 -22 154 43 11 31 6 46 -51 190 -40 99 -70 161 -83 169 -34 22 -69 26 -103&#10;11z" style="fill: rgb(255, 255, 255);"/>
    <path d="M2525 1051 c-11 -5 -29 -19 -40 -31 -19 -21 -20 -36 -20 -337 l0&#10;-315 28 -24 c19 -16 40 -24 67 -24 27 0 48 8 67 24 l28 24 0 316 0 316 -25 25&#10;c-28 27 -74 39 -105 26z" style="fill: rgb(255, 255, 255);"/>
  </g>
</svg>