<?xml version="1.0" encoding="utf-8"?>
<svg version="1.0" width="512.000000pt" height="512.000000pt" viewBox="0 0 512.000000 512.000000" preserveAspectRatio="xMidYMid meet" xmlns="http://www.w3.org/2000/svg">
  <g transform="translate(0.000000,512.000000) scale(0.100000,-0.100000)" fill="#000000" stroke="none">
    <path d="M2515 5109 c-31 -17 -335 -321 -351 -351 -19 -37 -18 -67 5 -104 24&#10;-40 76 -59 117 -44 16 6 59 41 97 78 l67 66 0 -327 c0 -352 2 -366 52 -401 29&#10;-21 87 -20 117 0 48 34 51 60 51 405 l0 322 73 -70 c83 -80 112 -92 165 -66&#10;46 22 64 56 58 107 -4 35 -22 57 -168 203 -90 91 -175 171 -190 179 -32 17&#10;-65 18 -93 3z" style="fill: rgb(255, 255, 255);"/>
    <path d="M2494 3712 c-39 -31 -44 -55 -44 -212 0 -92 4 -160 11 -173 19 -38&#10;51 -57 97 -57 35 0 49 6 73 29 l29 29 0 172 0 172 -29 29 c-24 23 -38 29 -73&#10;29 -26 0 -52 -7 -64 -18z" style="fill: rgb(255, 255, 255);"/>
    <path d="M1474 3441 c-20 -12 -37 -34 -44 -56 -11 -33 -9 -42 19 -98 17 -34&#10;54 -102 84 -152 46 -79 57 -92 93 -104 35 -12 44 -12 75 3 42 20 63 54 62 100&#10;-1 46 -138 283 -178 307 -38 24 -72 24 -111 0z" style="fill: rgb(255, 255, 255);"/>
    <path d="M3510 3413 c-37 -34 -160 -248 -160 -279 0 -95 112 -147 177 -82 39&#10;40 153 249 153 283 0 37 -22 70 -60 90 -43 22 -76 18 -110 -12z" style="fill: rgb(255, 255, 255);"/>
    <path d="M2370 3113 c-78 -9 -267 -56 -349 -88 -498 -190 -852 -600 -969&#10;-1125 -23 -102 -26 -137 -26 -315 0 -169 4 -216 22 -302 12 -55 22 -104 22&#10;-107 0 -3 -218 -6 -485 -6 -533 0 -539 -1 -569 -59 -21 -40 -20 -69 4 -108 12&#10;-21 32 -36 57 -43 27 -8 736 -10 2505 -8 l2467 3 28 21 c39 29 52 83 30 130&#10;-31 64 -30 64 -577 64 -474 0 -491 1 -485 19 16 52 36 169 46 277 25 268 -32&#10;555 -162 811 -265 524 -795 848 -1377 841 -81 0 -163 -3 -182 -5z m480 -237&#10;c381 -88 705 -337 879 -676 106 -206 141 -339 148 -570 5 -170 -6 -281 -43&#10;-407 l-15 -53 -1260 0 -1259 0 -10 25 c-5 14 -20 72 -31 128 -29 134 -31 370&#10;-6 500 113 570 563 997 1133 1076 116 16 344 5 464 -23z" style="fill: rgb(255, 255, 255);"/>
    <path d="M733 2696 c-53 -24 -76 -87 -51 -141 12 -26 199 -145 283 -181 103&#10;-43 196 87 118 165 -36 34 -254 160 -291 166 -15 3 -41 -1 -59 -9z" style="fill: rgb(255, 255, 255);"/>
    <path d="M4290 2690 c-38 -11 -251 -138 -266 -158 -23 -30 -26 -69 -9 -106 20&#10;-41 74 -71 112 -61 42 10 251 135 273 162 24 31 26 90 4 122 -13 18 -74 54&#10;-86 50 -2 0 -14 -4 -28 -9z" style="fill: rgb(255, 255, 255);"/>
    <path d="M455 1668 c-37 -20 -55 -52 -55 -96 0 -35 6 -49 29 -73 l29 -29 174&#10;0 c193 0 208 4 234 65 19 46 2 100 -39 125 -28 18 -51 20 -192 20 -97 -1 -168&#10;-5 -180 -12z" style="fill: rgb(255, 255, 255);"/>
    <path d="M4304 1670 c-73 -29 -84 -130 -20 -182 31 -25 329 -26 365 -2 60 42&#10;58 138 -2 174 -28 17 -50 20 -177 19 -80 0 -155 -4 -166 -9z" style="fill: rgb(255, 255, 255);"/>
    <path d="M704 656 c-24 -24 -34 -43 -34 -65 0 -39 24 -87 49 -101 13 -7 613&#10;-10 1846 -10 l1827 0 29 29 c43 43 41 101 -5 147 l-34 34 -1822 0 -1822 0 -34&#10;-34z" style="fill: rgb(255, 255, 255);"/>
    <path d="M1561 196 c-31 -17 -50 -53 -51 -94 0 -26 9 -43 34 -68 l34 -34 976&#10;0 c1061 0 1018 -2 1044 55 22 47 15 90 -19 124 l-31 31 -981 0 c-796 -1 -987&#10;-3 -1006 -14z" style="fill: rgb(255, 255, 255);"/>
  </g>
</svg>